<?xml version="1.0" encoding="UTF-8"?>
<svg version="1.1" xmlns="http://www.w3.org/2000/svg" width="1031" height="545">
<path d="M0 0 C340.23 0 680.46 0 1031 0 C1031 179.85 1031 359.7 1031 545 C690.77 545 350.54 545 0 545 C0 365.15 0 185.3 0 0 Z " fill="#FCFEFC" transform="translate(0,0)"/>
<path d="M0 0 C0.81558916 0.00262701 1.63117832 0.00525403 2.47148231 0.00796065 C3.76481894 0.00622988 3.76481894 0.00622988 5.08428359 0.00446415 C8.01134191 0.00178975 10.93834665 0.00632637 13.86540225 0.01075396 C15.96991362 0.01031843 18.07442495 0.00944385 20.17893597 0.00816479 C25.99148612 0.00591633 31.80401803 0.00994589 37.61656585 0.01494285 C43.87359378 0.01924216 50.13062058 0.0178013 56.38764957 0.01704058 C67.23817818 0.01651501 78.08869941 0.01963049 88.93922618 0.02527842 C100.32324314 0.0311889 111.70725771 0.03504304 123.0912762 0.03613123 C123.79824432 0.03619997 124.50521243 0.03626871 125.23360383 0.03633953 C128.82371777 0.03667785 132.41383172 0.03697924 136.00394567 0.03726641 C161.45413965 0.03936863 186.90433051 0.04611103 212.35452273 0.05556902 C237.08401475 0.0647486 261.81350592 0.07183459 286.5429993 0.07607684 C287.30483629 0.07620836 288.06667328 0.07633989 288.85159623 0.0764754 C296.50205057 0.07779388 304.15250491 0.0790697 311.80295926 0.08031426 C327.38878625 0.08285069 342.97461318 0.08567195 358.56044009 0.08866534 C359.63543318 0.08887127 359.63543318 0.08887127 360.73214331 0.08908137 C408.61595537 0.09828706 456.49976554 0.11420952 504.38357547 0.13100848 C504.38357547 5.74100848 504.38357547 11.35100848 504.38357547 17.13100848 C499.38905092 17.96342923 494.81392824 18.27170995 489.79533771 18.25684962 C488.93976187 18.25830306 488.08418603 18.2597565 487.20268366 18.26125398 C484.32833175 18.26491092 481.45403297 18.26142896 478.57968143 18.25799212 C476.50115362 18.25914405 474.42262601 18.26073206 472.34409884 18.26271936 C466.62651903 18.26690265 460.90895587 18.26482649 455.191376 18.26173314 C449.02778528 18.25947527 442.86419747 18.26296056 436.70060733 18.26571307 C425.32311189 18.26990784 413.94562325 18.26953722 402.56812797 18.2668016 C392.06029795 18.26428742 381.55246988 18.2636287 371.04463962 18.26482424 C369.999695 18.26493882 369.999695 18.26493882 368.9336404 18.26505571 C366.10593628 18.26536704 363.27823216 18.26568544 360.45052804 18.26601548 C333.92150075 18.26907495 307.39247686 18.26630001 280.86345009 18.26091858 C257.27884814 18.25617083 233.69425159 18.2565993 210.10964969 18.26137957 C183.62353458 18.26672997 157.13742247 18.26886008 130.6513069 18.26576731 C127.82995402 18.26544658 125.00860114 18.26513374 122.18724826 18.26482424 C121.49253742 18.26474516 120.79782657 18.26466609 120.08206389 18.26458461 C109.57643951 18.2634456 99.07081729 18.26478024 88.56519321 18.26730379 C76.62682461 18.27015718 64.6884624 18.26936397 52.75009406 18.26402305 C46.65374873 18.26138601 40.55741439 18.26038105 34.46106914 18.2636722 C28.88895602 18.26663498 23.31686417 18.26504267 17.744753 18.25969465 C15.72068425 18.25857041 13.69661372 18.2591618 11.67254609 18.26157044 C8.9378208 18.26457709 6.20316995 18.26152711 3.46844867 18.25684962 C2.66843202 18.25919078 1.86841538 18.26153195 1.04415581 18.26394406 C-4.38812366 18.24515891 -4.38812366 18.24515891 -6.61642453 17.13100848 C-6.64327132 14.48510834 -6.6631881 11.83947752 -6.67892453 9.19350848 C-6.68730344 8.43876238 -6.69568234 7.68401629 -6.70431516 6.9063991 C-6.71294894 4.98106534 -6.66866786 3.05565267 -6.61642453 1.13100848 C-4.82278629 -0.66262977 -2.38831025 0.00731939 0 0 Z " fill="#FA9B36" transform="translate(47.61642453074455,64.8689915239811)"/>
<path d="M0 0 C12.21 0 24.42 0 37 0 C36.875 15.875 36.875 15.875 36.75732422 20.81982422 C36.84965753 28.58819652 37.07929487 33.07479153 42.8828125 38.80078125 C43.76598145 39.52434814 44.64915039 40.24791504 45.55908203 40.9934082 C50.91750643 45.39837821 54.49543014 52.20117117 55.40625 59.05859375 C55.73328631 70.84552736 52.38873357 80.31656084 44.9375 89.5 C38.22794333 96.42636207 28.4225247 100.87946973 18.75 101.4375 C10.24521391 101.31131623 1.20619035 98.15464276 -5.59375 93.0546875 C-13.27067426 85.05297029 -18.39304483 73.61503884 -18.2109375 62.48828125 C-17.3718188 52.5897884 -12.68355409 42.97227926 -5.25 36.375 C-2.33701657 34 -2.33701657 34 0 34 C0 22.78 0 11.56 0 0 Z " fill="#F4DD40" transform="translate(470,393)"/>
<path d="M0 0 C1.47583955 0.0001591 2.95168467 0.00585225 4.42749023 0.01586914 C5.20293686 0.01728409 5.97838348 0.01869904 6.77732849 0.02015686 C9.26361893 0.02577194 11.74982059 0.03832693 14.23608398 0.05102539 C15.91772331 0.05603845 17.59936405 0.06060169 19.28100586 0.06469727 C23.41189965 0.07574626 27.54272674 0.09302094 31.67358398 0.11352539 C31.65150879 1.06606201 31.62943359 2.01859863 31.60668945 3 C31.53735225 6.57337302 31.5349206 10.14434078 31.55151367 13.71826172 C31.54958062 15.25745109 31.53009474 16.79673152 31.49194336 18.33544922 C31.12595859 27.72187345 31.12595859 27.72187345 34.87207031 36.04541016 C37.48538876 38.44139331 37.48538876 38.44139331 40.23876953 40.34790039 C43.85420397 42.96966133 45.73270661 46.16076293 47.67358398 50.11352539 C48.14924805 51.06678711 48.14924805 51.06678711 48.63452148 52.03930664 C52.09207188 59.95360778 51.36712647 66.87780364 48.42358398 74.86352539 C43.46750727 86.6861218 37.00292651 93.38213045 25.54077148 98.94946289 C16.57908804 102.58785753 7.52063472 101.59574425 -1.32641602 98.11352539 C-12.08749055 92.12138748 -18.0152409 84.53466269 -22.32641602 73.11352539 C-23.13891602 69.98852539 -23.13891602 69.98852539 -23.32641602 67.11352539 C-23.39989258 66.47415039 -23.47336914 65.83477539 -23.54907227 65.17602539 C-24.24095694 55.24127108 -19.23171767 46.63882485 -13.26782227 39.05102539 C-11.32641602 37.11352539 -11.32641602 37.11352539 -8.25317383 35.45214844 C-5.01259859 33.3628449 -5.01259859 33.3628449 -4.56933594 29.73779297 C-4.56522705 28.42447998 -4.56111816 27.11116699 -4.55688477 25.75805664 C-4.54555008 25.05581467 -4.53421539 24.35357269 -4.52253723 23.63005066 C-4.49186674 21.39461826 -4.5016472 19.16159653 -4.51391602 16.92602539 C-4.49976015 14.68052137 -4.4774263 12.43526453 -4.45173645 10.18986511 C-4.43272587 8.16035085 -4.43415168 6.13067613 -4.43652344 4.10107422 C-4.28168247 -0.1002315 -4.26065086 0.14540937 0 0 Z " fill="#F4B628" transform="translate(283.326416015625,319.886474609375)"/>
<path d="M0 0 C11.88 0 23.76 0 36 0 C35.875 15.9375 35.875 15.9375 35.75732422 20.90991211 C35.72408315 28.87537347 35.72408315 28.87537347 39.17871094 35.87255859 C41.69701145 38.07204612 44.30491434 40.02551525 47 42 C49.21875 45.109375 49.21875 45.109375 50.5 47.75 C50.9434375 48.63171875 51.386875 49.5134375 51.84375 50.421875 C56.04239307 59.78371429 55.93085946 66.5110438 52.4375 76.125 C48.67550192 85.84668826 43.35601627 92.21992623 34 97 C33.24976563 97.39316406 32.49953125 97.78632813 31.7265625 98.19140625 C24.6164413 101.49335574 16.73753005 102.96908427 9.13476562 100.35986328 C-2.35530095 95.56249479 -10.44314542 88.98579746 -16.11328125 77.8046875 C-19.72589575 68.524891 -18.96489625 58.50184116 -15.19140625 49.4296875 C-13.1262448 45.21811236 -11.06850023 41.30694383 -7.01660156 38.74682617 C-4.4036939 37.03679393 -2.79834547 35.5741515 -1 33 C0.1533484 27.32191881 0.07187641 21.84433977 0 16.0625 C0 10.761875 0 5.46125 0 0 Z " fill="#F4B828" transform="translate(87,356)"/>
<path d="M0 0 C5.61 0 11.22 0 17 0 C17.17389112 24.10411834 17.3401928 48.20828419 17.5 72.3125 C17.50594854 73.20837279 17.51189708 74.10424558 17.51802588 75.02726603 C17.85266554 125.49760168 18.09763202 175.96595919 18.0625 226.4375 C18.06164398 227.67654209 18.06078796 228.91558418 18.05990601 230.192173 C18.0490235 244.79480163 18.02884575 259.39739627 18 274 C11.73 274 5.46 274 -1 274 C-1.02357115 250.08720105 -1.04120325 226.17440508 -1.05181217 202.26159668 C-1.05687811 191.14802646 -1.06375236 180.03446383 -1.07543945 168.92089844 C-1.13350312 112.60530992 -0.89311045 56.30903032 0 0 Z " fill="#F9AA2B" transform="translate(480,101)"/>
<path d="M0 0 C5.94 0 11.88 0 18 0 C18 78.21 18 156.42 18 237 C12.06 237 6.12 237 0 237 C0 158.79 0 80.58 0 0 Z " fill="#FBA02B" transform="translate(96,101)"/>
<path d="M0 0 C1.48831242 0.00667405 2.97660807 0.01863442 4.46484375 0.03515625 C5.22345703 0.03966797 5.98207031 0.04417969 6.76367188 0.04882812 C8.64326246 0.06064945 10.52281274 0.07858547 12.40234375 0.09765625 C12.57897573 15.22255062 12.74476517 30.34755136 12.90234375 45.47265625 C12.92015963 47.18185682 12.92015963 47.18185682 12.93833542 48.9255867 C13.31607046 85.46263626 13.49391793 121.99617928 13.46484375 158.53515625 C13.46398773 159.61885246 13.46313171 160.70254868 13.46224976 161.81908417 C13.45111617 174.91196218 13.43056765 188.00480448 13.40234375 201.09765625 C7.46234375 201.09765625 1.52234375 201.09765625 -4.59765625 201.09765625 C-4.62077206 175.038167 -4.63863384 148.9786802 -4.64946842 122.91918278 C-4.65463207 110.82022313 -4.66167606 98.72126995 -4.6730957 86.62231445 C-4.68304046 76.08098819 -4.68950918 65.53966661 -4.69174474 54.99833578 C-4.69305221 49.41307491 -4.69614029 43.82782746 -4.70338631 38.24257088 C-4.71014324 32.99205977 -4.71227388 27.74156767 -4.71076393 22.49105263 C-4.71104041 20.55801541 -4.71304746 18.6249776 -4.71686172 16.69194412 C-4.72179387 14.06483364 -4.72065632 11.43779616 -4.71791077 8.8106842 C-4.72082361 8.03540739 -4.72373645 7.26013057 -4.72673756 6.46136051 C-4.70868842 0.12781456 -4.70868842 0.12781456 0 0 Z " fill="#FBA029" transform="translate(292.59765625,100.90234375)"/>
<path d="M0 0 C3.6888313 2.33499218 6.27735996 5.75600277 8.89453125 9.19921875 C9.94640625 7.83796875 9.94640625 7.83796875 11.01953125 6.44921875 C14.3126546 2.49185745 17.9848556 -0.1642227 22.89453125 -1.80078125 C29.42646764 -2.36387922 34.32674156 -1.3729474 39.89453125 2.19921875 C44.9337187 6.70191476 48.37427255 11.28605116 49.10661316 18.20205688 C49.21993348 20.50166423 49.27536274 22.79550322 49.30859375 25.09765625 C49.3279599 25.93261627 49.34732605 26.76757629 49.36727905 27.62783813 C49.42672739 30.27653001 49.47332019 32.92526618 49.51953125 35.57421875 C49.55774307 37.37762239 49.59679664 39.18100841 49.63671875 40.984375 C49.73240006 45.38917859 49.81655836 49.79406755 49.89453125 54.19921875 C51.19390625 54.34359375 52.49328125 54.48796875 53.83203125 54.63671875 C57.76953125 55.07421875 57.76953125 55.07421875 58.89453125 56.19921875 C58.89453125 58.83921875 58.89453125 61.47921875 58.89453125 64.19921875 C48.66453125 64.19921875 38.43453125 64.19921875 27.89453125 64.19921875 C27.89453125 56.19921875 27.89453125 56.19921875 28.89453125 55.19921875 C31.56511976 55.05806714 34.21885363 55.15674768 36.89453125 55.19921875 C36.85027359 49.8966932 36.78033113 44.59534654 36.68701172 39.29345703 C36.65886072 37.49146936 36.63761703 35.68935956 36.62353516 33.88720703 C36.6020237 31.29005677 36.55533368 28.6943658 36.50390625 26.09765625 C36.50267761 25.29742035 36.50144897 24.49718445 36.50018311 23.67269897 C36.36366752 18.40876123 35.33590521 15.40236785 31.89453125 11.19921875 C28.96776548 8.89961707 25.68045303 8.66037859 21.9921875 8.75 C18.08368044 9.58701734 15.35010464 12.13970705 12.89453125 15.19921875 C10.71668065 19.50297122 10.55433652 23.61302484 10.48046875 28.34375 C10.4611026 29.11353683 10.44173645 29.88332367 10.42178345 30.67643738 C10.36227502 33.12142046 10.3157183 35.56645137 10.26953125 38.01171875 C10.23132494 39.67515009 10.19227168 41.33856222 10.15234375 43.00195312 C10.05659742 47.06755116 9.97246116 51.13324176 9.89453125 55.19921875 C10.53261719 55.18761719 11.17070313 55.17601562 11.828125 55.1640625 C12.65441406 55.15503906 13.48070312 55.14601563 14.33203125 55.13671875 C15.56759766 55.11931641 15.56759766 55.11931641 16.828125 55.1015625 C18.89453125 55.19921875 18.89453125 55.19921875 19.89453125 56.19921875 C19.89453125 58.83921875 19.89453125 61.47921875 19.89453125 64.19921875 C9.66453125 64.19921875 -0.56546875 64.19921875 -11.10546875 64.19921875 C-11.10546875 61.22921875 -11.10546875 58.25921875 -11.10546875 55.19921875 C-6.65046875 54.70421875 -6.65046875 54.70421875 -2.10546875 54.19921875 C-2.05565959 49.78842649 -2.01955742 45.37778763 -1.99560547 40.96679688 C-1.98560974 39.46937199 -1.97200861 37.97196631 -1.95458984 36.47460938 C-1.93005587 34.30984732 -1.91892131 32.14534552 -1.91015625 29.98046875 C-1.89968262 28.68173828 -1.88920898 27.38300781 -1.87841797 26.04492188 C-2.1844875 20.86082812 -2.73816586 15.9767125 -5.98046875 11.76171875 C-9.22567829 9.37553526 -12.51067016 9.00529728 -16.48046875 8.82421875 C-17.21007812 8.77523437 -17.9396875 8.72625 -18.69140625 8.67578125 C-22.34226697 9.46739183 -24.84866006 11.29473337 -27.10546875 14.19921875 C-27.98079552 17.35024402 -27.94414232 20.40105795 -27.91015625 23.65625 C-27.92386261 24.5592131 -27.93756897 25.46217621 -27.95169067 26.39250183 C-27.98897133 29.26608186 -27.98527723 32.13793134 -27.98046875 35.01171875 C-27.99859692 36.9642197 -28.01939999 38.91669777 -28.04296875 40.86914062 C-28.09480157 45.64612307 -28.10990063 50.42197053 -28.10546875 55.19921875 C-26.18734375 55.16828125 -26.18734375 55.16828125 -24.23046875 55.13671875 C-20.35546875 55.07421875 -20.35546875 55.07421875 -18.10546875 56.19921875 C-18.10546875 59.16921875 -18.10546875 62.13921875 -18.10546875 65.19921875 C-22.50203048 65.22387379 -26.89855595 65.24205717 -31.29516602 65.25415039 C-32.79191793 65.25918996 -34.28866491 65.26602162 -35.78540039 65.2746582 C-37.93246682 65.28674034 -40.07946837 65.29245066 -42.2265625 65.296875 C-44.16680298 65.30473022 -44.16680298 65.30473022 -46.14624023 65.31274414 C-49.10546875 65.19921875 -49.10546875 65.19921875 -50.10546875 64.19921875 C-50.23828125 62.38671875 -50.23828125 62.38671875 -50.23046875 60.19921875 C-50.23304688 59.47734375 -50.235625 58.75546875 -50.23828125 58.01171875 C-50.10546875 56.19921875 -50.10546875 56.19921875 -49.10546875 55.19921875 C-46.46546875 55.19921875 -43.82546875 55.19921875 -41.10546875 55.19921875 C-41.43546875 39.68921875 -41.76546875 24.17921875 -42.10546875 8.19921875 C-44.41546875 7.86921875 -46.72546875 7.53921875 -49.10546875 7.19921875 C-49.76546875 6.53921875 -50.42546875 5.87921875 -51.10546875 5.19921875 C-50.54991319 0.64366319 -50.54991319 0.64366319 -49.10546875 -0.80078125 C-47.61675015 -0.88747557 -46.12402375 -0.90781619 -44.6328125 -0.8984375 C-43.73369141 -0.89521484 -42.83457031 -0.89199219 -41.90820312 -0.88867188 C-40.96267578 -0.88029297 -40.01714844 -0.87191406 -39.04296875 -0.86328125 C-38.09357422 -0.85876953 -37.14417969 -0.85425781 -36.16601562 -0.84960938 C-33.8124381 -0.83778235 -31.45898398 -0.8213015 -29.10546875 -0.80078125 C-28.77546875 1.50921875 -28.44546875 3.81921875 -28.10546875 6.19921875 C-27.574375 5.78929687 -27.04328125 5.379375 -26.49609375 4.95703125 C-25.43648437 4.14878906 -25.43648437 4.14878906 -24.35546875 3.32421875 C-23.31132813 2.52371094 -23.31132813 2.52371094 -22.24609375 1.70703125 C-15.45944037 -3.07334868 -7.64833963 -3.19329862 0 0 Z " fill="#FD8B2B" transform="translate(799.10546875,245.80078125)"/>
<path d="M0 0 C1.58206057 0.00667536 3.16410534 0.0186375 4.74609375 0.03515625 C5.55240234 0.03966797 6.35871094 0.04417969 7.18945312 0.04882812 C9.18753131 0.06065107 11.18557158 0.07858711 13.18359375 0.09765625 C13.17312012 1.31759277 13.16264648 2.5375293 13.15185547 3.79443359 C13.11540259 8.36048397 13.09260199 12.92652171 13.07373047 17.49267578 C13.06373015 19.46144785 13.05012552 21.4302053 13.03271484 23.39892578 C13.00820205 26.24385206 12.99705069 29.0885804 12.98828125 31.93359375 C12.97795868 32.80067963 12.96763611 33.6677655 12.95700073 34.56112671 C12.9557762 41.37123217 12.96137033 49.08690194 17.12109375 54.72265625 C22.43233994 57.1072974 28.04282445 57.15143318 33.5703125 55.296875 C36.96056092 53.67381707 39.73422356 51.98631294 42.18359375 49.09765625 C42.44532129 46.08469389 42.53219488 43.28285057 42.4765625 40.2734375 C42.47019524 38.98133614 42.47019524 38.98133614 42.46369934 37.66313171 C42.44690623 34.91182194 42.40925331 32.16124463 42.37109375 29.41015625 C42.35604771 27.54493245 42.34235916 25.67969718 42.33007812 23.81445312 C42.29700068 19.24190527 42.24521435 14.66990495 42.18359375 10.09765625 C41.04921875 9.78828125 39.91484375 9.47890625 38.74609375 9.16015625 C35.18359375 8.09765625 35.18359375 8.09765625 34.18359375 7.09765625 C34.05859375 4.09765625 34.05859375 4.09765625 34.18359375 1.09765625 C34.51359375 0.76765625 34.84359375 0.43765625 35.18359375 0.09765625 C41.78359375 0.09765625 48.38359375 0.09765625 55.18359375 0.09765625 C55.18359375 18.57765625 55.18359375 37.05765625 55.18359375 56.09765625 C57.49359375 56.42765625 59.80359375 56.75765625 62.18359375 57.09765625 C62.18359375 59.73765625 62.18359375 62.37765625 62.18359375 65.09765625 C56.24359375 65.09765625 50.30359375 65.09765625 44.18359375 65.09765625 C44.18359375 62.45765625 44.18359375 59.81765625 44.18359375 57.09765625 C40.55014437 59.18964226 37.18636218 61.50735403 33.83203125 64.01171875 C29.18508646 67.07297622 23.50239609 66.83005818 18.18359375 66.09765625 C11.56532997 63.34681348 7.03959431 58.62401897 4.18359375 52.09765625 C2.37839054 46.75391849 1.9111036 42.15642815 1.98828125 36.5390625 C1.99252609 35.35533302 1.99252609 35.35533302 1.99685669 34.14768982 C2.00796318 31.65168453 2.0330492 29.15605127 2.05859375 26.66015625 C2.0686359 24.95768751 2.07775958 23.25521309 2.0859375 21.55273438 C2.10787115 17.40090049 2.14233398 13.24934123 2.18359375 9.09765625 C0.72953125 9.12859375 0.72953125 9.12859375 -0.75390625 9.16015625 C-3.81640625 9.09765625 -3.81640625 9.09765625 -4.81640625 8.09765625 C-4.94140625 4.59765625 -4.94140625 4.59765625 -4.81640625 1.09765625 C-3.81640625 0.09765625 -3.81640625 0.09765625 0 0 Z " fill="#FD8B2B" transform="translate(679.81640625,244.90234375)"/>
<path d="M0 0 C1.2463623 0.01047363 2.49272461 0.02094727 3.77685547 0.03173828 C4.77143265 0.03598312 4.77143265 0.03598312 5.78610229 0.04031372 C7.9055988 0.05151643 10.02467401 0.07662027 12.14404297 0.10205078 C13.58023479 0.11208051 15.01643322 0.12120637 16.45263672 0.12939453 C19.97490925 0.15145578 23.496935 0.18598585 27.01904297 0.22705078 C27.01904297 2.86705078 27.01904297 5.50705078 27.01904297 8.22705078 C22.56404297 8.72205078 22.56404297 8.72205078 18.01904297 9.22705078 C17.68904297 31.99705078 17.35904297 54.76705078 17.01904297 78.22705078 C26.91904297 78.22705078 36.81904297 78.22705078 47.01904297 78.22705078 C47.01904297 75.25705078 47.01904297 72.28705078 47.01904297 69.22705078 C47.34904297 68.56705078 47.67904297 67.90705078 48.01904297 67.22705078 C51.31904297 67.22705078 54.61904297 67.22705078 58.01904297 67.22705078 C58.01904297 73.82705078 58.01904297 80.42705078 58.01904297 87.22705078 C37.55904297 87.22705078 17.09904297 87.22705078 -3.98095703 87.22705078 C-3.98095703 84.58705078 -3.98095703 81.94705078 -3.98095703 79.22705078 C-0.02095703 78.23705078 -0.02095703 78.23705078 4.01904297 77.22705078 C4.01904297 55.11705078 4.01904297 33.00705078 4.01904297 10.22705078 C1.04904297 9.23705078 -1.92095703 8.24705078 -4.98095703 7.22705078 C-5.10595703 4.85205078 -5.10595703 4.85205078 -4.98095703 2.22705078 C-2.98095703 0.22705078 -2.98095703 0.22705078 0 0 Z " fill="#FD8A27" transform="translate(611.98095703125,222.77294921875)"/>
<path d="M0 0 C6.93 0 13.86 0 21 0 C21 18.48 21 36.96 21 56 C23.64 56 26.28 56 29 56 C30 57 30 57 30 65 C20.1 65 10.2 65 0 65 C0 62.03 0 59.06 0 56 C2.64 55.67 5.28 55.34 8 55 C8 40.15 8 25.3 8 10 C5.03 9.01 2.06 8.02 -1 7 C-1.04254356 5.00045254 -1.04080783 2.99958364 -1 1 C-0.67 0.67 -0.34 0.34 0 0 Z " fill="#FD8928" transform="translate(867,245)"/>
<path d="M0 0 C5.94 0 11.88 0 18 0 C18 5.94 18 11.88 18 18 C12.06 18 6.12 18 0 18 C0 12.06 0 6.12 0 0 Z " fill="#F7BC20" transform="translate(23,411)"/>
<path d="M0 0 C5.94 0 11.88 0 18 0 C18 5.94 18 11.88 18 18 C12.06 18 6.12 18 0 18 C0 12.06 0 6.12 0 0 Z " fill="#F8C325" transform="translate(361,375)"/>
<path d="M0 0 C5.94 0 11.88 0 18 0 C18.04125 2.59875 18.0825 5.1975 18.125 7.875 C18.14320801 8.69210449 18.16141602 9.50920898 18.18017578 10.35107422 C18.19477217 12.23495049 18.09943482 14.11869312 18 16 C16 18 16 18 12.55859375 18.23046875 C11.18482696 18.22647911 9.81105886 18.21173177 8.4375 18.1875 C7.73947266 18.18685547 7.04144531 18.18621094 6.32226562 18.18554688 C1.14031158 18.14031158 1.14031158 18.14031158 0 17 C-0.07330331 14.13530675 -0.09217831 11.30106326 -0.0625 8.4375 C-0.041875 5.653125 -0.02125 2.86875 0 0 Z " fill="#F7D833" transform="translate(288,448)"/>
<path d="M0 0 C2.96783082 1.5691979 4.96785695 3.72779292 7.2890625 6.140625 C8.18109375 7.05972656 9.073125 7.97882813 9.9921875 8.92578125 C10.66765625 9.63605469 11.343125 10.34632813 12.0390625 11.078125 C10.89903015 14.49822206 9.81736052 15.36681942 7.1015625 17.640625 C5.00562287 19.40943068 2.97911362 21.13807388 1.0390625 23.078125 C-3.04616212 22.87386377 -5.34644383 20.19166514 -8.2109375 17.515625 C-9.10296875 16.68933594 -9.995 15.86304688 -10.9140625 15.01171875 C-11.58953125 14.37363281 -12.265 13.73554688 -12.9609375 13.078125 C-11.42845701 9.49409805 -9.2934774 7.04962366 -6.5859375 4.265625 C-5.81507813 3.45480469 -5.04421875 2.64398438 -4.25 1.80859375 C-1.9609375 0.078125 -1.9609375 0.078125 0 0 Z " fill="#F9D230" transform="translate(348.9609375,423.921875)"/>
<path d="M0 0 C3.68069887 1.53643852 5.98775204 3.78150945 8.75 6.625 C9.54921875 7.44226563 10.3484375 8.25953125 11.171875 9.1015625 C11.77515625 9.72804688 12.3784375 10.35453125 13 11 C11.46356148 14.68069887 9.21849055 16.98775204 6.375 19.75 C5.55773437 20.54921875 4.74046875 21.3484375 3.8984375 22.171875 C3.27195313 22.77515625 2.64546875 23.3784375 2 24 C-1.18559952 22.60366893 -3.23943845 20.95442507 -5.625 18.4375 C-8.04521959 15.85984611 -8.04521959 15.85984611 -11 14 C-10.52590352 9.68269587 -7.96603297 7.66352539 -4.9375 4.75 C-4.01839844 3.85796875 -3.09929687 2.9659375 -2.15234375 2.046875 C-1.44207031 1.37140625 -0.73179687 0.6959375 0 0 Z " fill="#F8D331" transform="translate(156,460)"/>
<path d="M0 0 C5.94 0 11.88 0 18 0 C18 5.61 18 11.22 18 17 C12.06 17 6.12 17 0 17 C0 11.39 0 5.78 0 0 Z " fill="#F5D730" transform="translate(96,485)"/>
<path d="M0 0 C5.61 0 11.22 0 17 0 C17 5.94 17 11.88 17 18 C11.39 18 5.78 18 0 18 C0 12.06 0 6.12 0 0 Z " fill="#F7E632" transform="translate(553,448)"/>
<path d="M0 0 C5.61 0 11.22 0 17 0 C17 5.94 17 11.88 17 18 C11.39 18 5.78 18 0 18 C0 12.06 0 6.12 0 0 Z " fill="#F8DD2F" transform="translate(407,448)"/>
<path d="M0 0 C5.94 0 11.88 0 18 0 C18 5.61 18 11.22 18 17 C12.06 17 6.12 17 0 17 C0 11.39 0 5.78 0 0 Z " fill="#F8C51F" transform="translate(169,412)"/>
<path d="M0 0 C1.58206422 0.00574487 3.16410406 0.01876032 4.74609375 0.03515625 C7.53046875 0.05578125 10.31484375 0.07640625 13.18359375 0.09765625 C13.18359375 5.70765625 13.18359375 11.31765625 13.18359375 17.09765625 C7.24359375 17.09765625 1.30359375 17.09765625 -4.81640625 17.09765625 C-4.83703125 14.47828125 -4.85765625 11.85890625 -4.87890625 9.16015625 C-4.88801025 8.33394775 -4.89711426 7.50773926 -4.90649414 6.65649414 C-4.9136457 4.80331866 -4.86669145 2.95016317 -4.81640625 1.09765625 C-3.81640625 0.09765625 -3.81640625 0.09765625 0 0 Z " fill="#F7F33F" transform="translate(483.81640625,520.90234375)"/>
<path d="M0 0 C2.5220732 1.27158921 3.920941 3.24167392 5.62890625 5.44140625 C7.15541777 7.29055585 8.87809697 8.6153459 10.8671875 9.94140625 C10.32293765 13.95409583 8.34646549 15.92557471 5.5546875 18.75390625 C4.77480469 19.56472656 3.99492187 20.37554687 3.19140625 21.2109375 C0.8671875 22.94140625 0.8671875 22.94140625 -1.2734375 22.84765625 C-4.12835745 21.45618266 -5.95423917 19.22625145 -8.1328125 16.94140625 C-9.78145795 15.58585332 -11.44285245 14.24508972 -13.1328125 12.94140625 C-11.60033201 9.3573793 -9.4653524 6.91290491 -6.7578125 4.12890625 C-5.98695313 3.31808594 -5.21609375 2.50726563 -4.421875 1.671875 C-2.1328125 -0.05859375 -2.1328125 -0.05859375 0 0 Z " fill="#F9CC2B" transform="translate(246.1328125,424.05859375)"/>
<path d="M0 0 C2.64385133 1.37146528 4.29502046 3.07119975 6.29296875 5.27734375 C7.01097656 6.045625 7.72898437 6.81390625 8.46875 7.60546875 C9.98046875 10.02734375 9.98046875 10.02734375 9.9296875 12.625 C8.84472996 15.37088019 7.80772352 16.43601992 5.48046875 18.21484375 C2.78537304 20.24756363 2.78537304 20.24756363 0.98046875 23.02734375 C-3.1576683 22.4955738 -5.29035443 20.24802209 -8.26953125 17.46484375 C-9.1615625 16.63855469 -10.05359375 15.81226563 -10.97265625 14.9609375 C-11.648125 14.32285156 -12.32359375 13.68476563 -13.01953125 13.02734375 C-11.48705076 9.4433168 -9.35207115 6.99884241 -6.64453125 4.21484375 C-5.87367188 3.40402344 -5.1028125 2.59320313 -4.30859375 1.7578125 C-2.01953125 0.02734375 -2.01953125 0.02734375 0 0 Z " fill="#F9F039" transform="translate(438.01953125,496.97265625)"/>
<path d="M0 0 C5.61 0 11.22 0 17 0 C17 5.61 17 11.22 17 17 C11.39 17 5.78 17 0 17 C0 11.39 0 5.78 0 0 Z " fill="#F8B819" transform="translate(216,375)"/>
<path d="M0 0 C4.10447392 0.51776621 5.95699523 2.64627444 8.75 5.5625 C9.54921875 6.38878906 10.3484375 7.21507812 11.171875 8.06640625 C11.77515625 8.70449219 12.3784375 9.34257812 13 10 C11.55575365 13.23861303 9.74227753 15.61969163 7.375 18.25 C6.74335937 18.95640625 6.11171875 19.6628125 5.4609375 20.390625 C4.97882812 20.92171875 4.49671875 21.4528125 4 22 C0.09170915 21.4352699 -1.89920223 19.57868029 -4.75 16.9375 C-5.54921875 16.20402344 -6.3484375 15.47054688 -7.171875 14.71484375 C-7.77515625 14.14894531 -8.3784375 13.58304687 -9 13 C-8.4352699 9.09170915 -6.57868029 7.10079777 -3.9375 4.25 C-3.20402344 3.45078125 -2.47054687 2.6515625 -1.71484375 1.828125 C-1.14894531 1.22484375 -0.58304688 0.6215625 0 0 Z " fill="#F8CD2D" transform="translate(51,461)"/>
<path d="M0 0 C3.81473334 2.16746213 7.26688545 4.90723199 9.75 8.5625 C9.59781446 12.20045906 7.57151705 14.21175413 5.1875 16.8125 C4.54683594 17.51890625 3.90617188 18.2253125 3.24609375 18.953125 C2.75238281 19.48421875 2.25867188 20.0153125 1.75 20.5625 C-1.82026711 19.97012384 -3.70816451 18.59069396 -6.375 16.1875 C-7.05820312 15.58164062 -7.74140625 14.97578125 -8.4453125 14.3515625 C-10.25 12.5625 -10.25 12.5625 -12.25 9.5625 C-11.15033225 8.26700101 -10.04508199 6.97623929 -8.9375 5.6875 C-8.32261719 4.96820313 -7.70773437 4.24890625 -7.07421875 3.5078125 C-3.20107798 -0.62243183 -3.20107798 -0.62243183 0 0 Z " fill="#F7F145" transform="translate(541.25,498.4375)"/>
<path d="M0 0 C0.33 0 0.66 0 1 0 C1.05096602 7.36487858 1.08584484 14.72971119 1.10986328 22.09472656 C1.11988281 24.5970225 1.13350213 27.09930684 1.15087891 29.6015625 C1.17530561 33.21096673 1.18652394 36.82021531 1.1953125 40.4296875 C1.20563507 41.53738495 1.21595764 42.6450824 1.22659302 43.78634644 C1.22753973 50.43155514 0.59273001 56.54386197 -1 63 C-1.33 63 -1.66 63 -2 63 C-2.20048859 55.52447454 -2.38417285 48.04873362 -2.54658794 40.57227802 C-2.62253364 37.10041052 -2.70419774 33.62887661 -2.79907227 30.1574707 C-2.90796561 26.16384781 -2.99172869 22.17003738 -3.07421875 18.17578125 C-3.11157639 16.93290848 -3.14893402 15.69003571 -3.18742371 14.40950012 C-3.21779472 12.66826118 -3.21779472 12.66826118 -3.2487793 10.8918457 C-3.27320602 9.87258499 -3.29763275 8.85332428 -3.32279968 7.80317688 C-2.94581002 4.52941683 -1.92228746 2.64898762 0 0 Z " fill="#FBB45B" transform="translate(113,191)"/>
<path d="M0 0 C3.96 0 7.92 0 12 0 C12 3.96 12 7.92 12 12 C3.50390625 12.09765625 3.50390625 12.09765625 1 12 C0 11 0 11 -0.09765625 8.49609375 C-0.06510417 5.6640625 -0.03255208 2.83203125 0 0 Z " fill="#FC8D29" transform="translate(876,217)"/>
<path d="M0 0 C0 2.31 0 4.62 0 7 C-5.94 7 -11.88 7 -18 7 C-18 4.69 -18 2.38 -18 0 C-15.02148438 -0.34179688 -15.02148438 -0.34179688 -12.04296875 -0.68359375 C-6.86880623 -1.48494588 -5.08078929 -1.69359643 0 0 Z " fill="#FBE464" transform="translate(114,495)"/>
<path d="M0 0 C32.01 0 64.02 0 97 0 C96.67 0.99 96.34 1.98 96 3 C96 2.34 96 1.68 96 1 C95.40832031 1.0721875 94.81664062 1.144375 94.20703125 1.21875 C90.1143988 1.69945071 86.12750795 2.1179288 82 2 C80.68 2 79.36 2 78 2 C77.24460937 1.98839844 76.48921875 1.97679688 75.7109375 1.96484375 C74.94007813 1.95582031 74.16921875 1.94679688 73.375 1.9375 C72.59898437 1.92589844 71.82296875 1.91429688 71.0234375 1.90234375 C68.92974263 1.86697181 68.92974263 1.86697181 67 3 C66.01 2.67 65.02 2.34 64 2 C62.46832032 1.91798117 60.93325677 1.89253102 59.39941406 1.90234375 C58.46703918 1.90564697 57.53466431 1.9089502 56.57403564 1.91235352 C55.06012238 1.92480103 55.06012238 1.92480103 53.515625 1.9375 C52.46783875 1.94128662 51.42005249 1.94507324 50.34051514 1.94897461 C45.86091258 1.96526438 41.38140159 1.99307002 36.90185547 2.02050781 C24.55666873 2.08966852 12.30321358 2.1244063 0 1 C0 0.67 0 0.34 0 0 Z " fill="#EE9B29" transform="translate(455,65)"/>
<path d="M0 0 C1.05904289 0.00212242 1.05904289 0.00212242 2.13948059 0.00428772 C4.39120751 0.00987861 6.64283446 0.02242937 8.89453125 0.03515625 C10.4225246 0.04017243 11.95051952 0.04473513 13.47851562 0.04882812 C17.2213926 0.05984505 20.96419498 0.07710338 24.70703125 0.09765625 C24.37703125 0.75765625 24.04703125 1.41765625 23.70703125 2.09765625 C13.97800809 2.76451708 4.3390367 3.20063831 -5.4140625 3.03515625 C-8.23629583 2.89111348 -8.23629583 2.89111348 -10.29296875 4.09765625 C-10.29296875 3.10765625 -10.29296875 2.11765625 -10.29296875 1.09765625 C-6.78672445 -0.07109185 -3.64518215 -0.02748642 0 0 Z " fill="#F1CA28" transform="translate(481.29296875,392.90234375)"/>
<path d="M0 0 C0.66 0.33 1.32 0.66 2 1 C2.0270043 2.45823212 2.04639787 3.91660675 2.0625 5.375 C2.07410156 6.18710937 2.08570313 6.99921875 2.09765625 7.8359375 C2 10 2 10 1 12 C-1.86724686 11.42655063 -2.8614515 11.1385485 -5 9 C-5.125 5.375 -5.125 5.375 -5 2 C-2.625 0.9375 -2.625 0.9375 0 0 Z " fill="#FCF54C" transform="translate(439,503)"/>
<path d="M0 0 C0.33 0 0.66 0 1 0 C1.84156607 8.58397392 -1.00441519 17.00768283 -6.171875 23.89453125 C-6.77515625 24.58933594 -7.3784375 25.28414063 -8 26 C-8.66 25.67 -9.32 25.34 -10 25 C-9.07204012 22.55847449 -8.13319062 20.12215032 -7.1875 17.6875 C-6.79594727 16.65206055 -6.79594727 16.65206055 -6.39648438 15.59570312 C-5.01450878 12.0639877 -3.76538019 9.57244669 -1 7 C-0.26958147 3.38976901 -0.26958147 3.38976901 0 0 Z " fill="#F7BE1F" transform="translate(140,419)"/>
<path d="M0 0 C0.66 0 1.32 0 2 0 C1.50609769 5.80335213 0.12831016 11.01940092 -3 16 C-5.75 17.5625 -5.75 17.5625 -8 18 C-6.443154 13.98696492 -4.68861143 10.0907072 -2.875 6.1875 C-2.33617187 5.02605469 -1.79734375 3.86460937 -1.2421875 2.66796875 C-0.62730469 1.34732422 -0.62730469 1.34732422 0 0 Z " fill="#F9E135" transform="translate(522,461)"/>
<path d="M0 0 C0 1.65 0 3.3 0 5 C-0.33 4.01 -0.66 3.02 -1 2 C-6.69051363 2.5381371 -12.34865884 3.1400133 -18 4 C-18 2.68 -18 1.36 -18 0 C-15.02148438 -0.34179688 -15.02148438 -0.34179688 -12.04296875 -0.68359375 C-6.86880623 -1.48494588 -5.08078929 -1.69359643 0 0 Z " fill="#FBE047" transform="translate(114,495)"/>
<path d="M0 0 C0.33 0 0.66 0 1 0 C0.5851477 6.36106855 -1.59190623 11.61205985 -5 17 C-5.99 17.66 -6.98 18.32 -8 19 C-6.71426775 12.68822351 -4.69749408 4.69749408 0 0 Z " fill="#F6BC1E" transform="translate(331,389)"/>
<path d="M0 0 C0.87454834 0.00523682 1.74909668 0.01047363 2.65014648 0.01586914 C3.59438477 0.0190918 4.53862305 0.02231445 5.51147461 0.02563477 C6.50469727 0.03401367 7.49791992 0.04239258 8.52124023 0.05102539 C9.51833008 0.05553711 10.51541992 0.06004883 11.54272461 0.06469727 C14.0147551 0.07652516 16.48675496 0.09446124 18.95874023 0.11352539 C18.95874023 3.41352539 18.95874023 6.71352539 18.95874023 10.11352539 C18.62874023 10.11352539 18.29874023 10.11352539 17.95874023 10.11352539 C17.95874023 7.14352539 17.95874023 4.17352539 17.95874023 1.11352539 C11.68874023 1.11352539 5.41874023 1.11352539 -1.04125977 1.11352539 C-0.71125977 3.42352539 -0.38125977 5.73352539 -0.04125977 8.11352539 C-1.03125977 7.78352539 -2.02125977 7.45352539 -3.04125977 7.11352539 C-3.08380333 5.11397793 -3.08206759 3.11310903 -3.04125977 1.11352539 C-2.04125977 0.11352539 -2.04125977 0.11352539 0 0 Z " fill="#F4AC5E" transform="translate(869.041259765625,244.886474609375)"/>
<path d="M0 0 C0.33 0 0.66 0 1 0 C1 4.95 1 9.9 1 15 C0.01 15 -0.98 15 -2 15 C-2 10.71 -2 6.42 -2 2 C-1.34 2 -0.68 2 0 2 C0 1.34 0 0.68 0 0 Z " fill="#FDAA45" transform="translate(496,127)"/>
<path d="M0 0 C2.97 0 5.94 0 9 0 C9 0.33 9 0.66 9 1 C6.69 1.66 4.38 2.32 2 3 C1.67 10.59 1.34 18.18 1 26 C0.67 26 0.34 26 0 26 C0 17.42 0 8.84 0 0 Z " fill="#F4991F" transform="translate(97,102)"/>
<path d="M0 0 C1.99954746 -0.04254356 4.00041636 -0.04080783 6 0 C7 1 7 1 7.09765625 2.84765625 C7.06510417 4.8984375 7.03255208 6.94921875 7 9 C6.67 8.01 6.34 7.02 6 6 C5.34 6 4.68 6 4 6 C4 4.35 4 2.7 4 1 C2.68 0.67 1.36 0.34 0 0 Z " fill="#FB9F4C" transform="translate(890,301)"/>
<path d="M0 0 C0.99 0.33 1.98 0.66 3 1 C3 2.98 3 4.96 3 7 C2.01 7.33 1.02 7.66 0 8 C0 5.36 0 2.72 0 0 Z " fill="#FB9E28" transform="translate(749,302)"/>
<path d="M0 0 C0.66 0 1.32 0 2 0 C0.55746343 3.36591866 -1.33264727 5.51047079 -4 8 C-4.66 7.67 -5.32 7.34 -6 7 C-5.04882866 5.8274869 -4.08882991 4.66212985 -3.125 3.5 C-2.59132813 2.8503125 -2.05765625 2.200625 -1.5078125 1.53125 C-0.76144531 0.77328125 -0.76144531 0.77328125 0 0 Z " fill="#F4EA4D" transform="translate(536,500)"/>
<path d="M0 0 C1.32 0.66 2.64 1.32 4 2 C2.60804085 4.7839183 0.84424221 4.97898997 -2 6 C-1.34 4.02 -0.68 2.04 0 0 Z " fill="#F5EC33" transform="translate(539,498)"/>
<path d="M0 0 C0.33 0 0.66 0 1 0 C1.125 3.375 1.125 3.375 1 7 C0.34 7.66 -0.32 8.32 -1 9 C-1.625 5.625 -1.625 5.625 -2 2 C-1.34 1.34 -0.68 0.68 0 0 Z " fill="#FCA542" transform="translate(112,194)"/>
<path d="M0 0 C1.32 0.33 2.64 0.66 4 1 C3.34 2.98 2.68 4.96 2 7 C1.34 6.67 0.68 6.34 0 6 C0 4.02 0 2.04 0 0 Z " fill="#F59F31" transform="translate(714,246)"/>
</svg>
